# xmcd CD database file
#
# Track frame offsets:
#	150
#	18265
#	35560
#	53265
#	72932
#	92692
#	99612
#	105842
#	112850
#	119052
#	126215
#	132477
#	155115
#	171887
#	191417
#	209117
#	228247
#	243600
#	260410
#	283990
#
# Disc length: 4021 seconds
#
# Revision: 2
# Processed by: cddbd v1.5.2PL0 Copyright (c) Steve Scherf et al.
# Submitted via: jetAudio 7
#
DISCID=210fb314
DTITLE=Various Artist - アニメ主題歌大全集〜Disc8
DYEAR=1900
DGENRE=Soundtrack
TTITLE0=【OP】前を向いて歩こう
TTITLE1=【ED】雨のちハレルヤ〜太陽に投げKiss〜
TTITLE2=【OP】少年の羽
TTITLE3=【OP】素敵な時間
TTITLE4=【ED】今日は何色
TTITLE5=【Short Ver_OP1】空
TTITLE6=【Short Ver_ED1】青い空に出逢えた
TTITLE7=【Short Ver_OP2】息もできない
TTITLE8=【Short Ver_ED2】ミネラル
TTITLE9=【Short Ver_OP3】君さえいれば
TTITLE10=【Short Ver_ED3】風のように自由〜Free As The Wind〜
TTITLE11=【OP】コジコジ銀座
TTITLE12=【ED1】ポケットカウボーイ
TTITLE13=【ED2】死ぬほど恋して
TTITLE14=【OP】Chase The Wind
TTITLE15=【ED】キミに負けないように
TTITLE16=【OP】クラスで一番スゴイやつ
TTITLE17=【ED1】Tu-La-La
TTITLE18=【ED2】ドタバタギャグの日曜日
TTITLE19=【ED】When I Cry
EXTD=
EXTT0=
EXTT1=
EXTT2=
EXTT3=
EXTT4=
EXTT5=
EXTT6=
EXTT7=
EXTT8=
EXTT9=
EXTT10=
EXTT11=
EXTT12=
EXTT13=
EXTT14=
EXTT15=
EXTT16=
EXTT17=
EXTT18=
EXTT19=
PLAYORDER=
